# xmcd
#
# Track frame offsets: 
#        150
#        29604
#        53092
#        75034
#        99973
#        117411
#        137235
#        161431
#        180407
#        196705
#        219751
#        246045
#        273491
#        296633
#        320543
#
# Disc length: 4614 seconds
#
# Revision: 1
# Processed by: cddbd v1.5.2PL0 Copyright (c) Steve Scherf et al.
# Submitted via: ExactAudioCopyFreeDBPlugin 1.0
#
DISCID=c412040f
DTITLE=Various Artist - Euro Smash Dance 2CD
DYEAR=1998
DGENRE=Euro-House
TTITLE0=Happy Nation - Girls Just Wanna Have Fun (Remix) (PN' D Extend
TTITLE0=ed Mix)
TTITLE1=Dyonne Thing - I Say A Little Prayer (Favilli Rmx)
TTITLE2=Something Real - Torn (PN' D Euroclub Mix)
TTITLE3=Vick Moore - Breathe (Extended Mix)
TTITLE4=Ally and Jo - The Lion Sleeps Tonight (Banjo Mix)
TTITLE5=Lime Inc. - Babe We're Gonna Love Tonite
TTITLE6=Jamie Dee - Dreaming Blue (Dance Mix)
TTITLE7=J.K. - My Radio (Stay In Time Tadio Mix)
TTITLE8=N.T.N. - Heartbeat (Radio Mix)
TTITLE9=Ally and Jo - Nasty Girl (M.B.R.G. Extended)
TTITLE10=Double Dare feat. Yvonne F. - I Believe (I.B. Club Remix)
TTITLE11=Blizzard - Without You (Mistral Extended Mix)
TTITLE12=Tenessee - Tell Me (Mix Version)
TTITLE13=Double Dare - We Belong (M.B.R.G. Original Mix)
TTITLE14=Tigra - In The Name Of Love (Mabra Mix)
EXTD=
EXTT0=
EXTT1=
EXTT2=
EXTT3=
EXTT4=
EXTT5=
EXTT6=
EXTT7=
EXTT8=
EXTT9=
EXTT10=
EXTT11=
EXTT12=
EXTT13=
EXTT14=
PLAYORDER=
